<?xml version="1.0" encoding="iso-8859-1"?>
<!-- Generator: Adobe Illustrator 26.5.3, SVG Export Plug-In . SVG Version: 6.00 Build 0)  -->
<svg version="1.1" id="Layer_1" xmlns="http://www.w3.org/2000/svg" xmlns:xlink="http://www.w3.org/1999/xlink" x="0px" y="0px"
	 width="612px" height="792px" viewBox="0 0 612 792" enable-background="new 0 0 612 792" xml:space="preserve">
<g>
	<path fill="#FFFFFF" d="M205.494,299.921v130.53H404.99v-130.53H205.494z M355.766,327.313c6.201,0,15.907,0.934,23.242,3.544
		l0.488,18.496l-1.524-0.004c-0.621-11.686-13.06-17.021-24.639-17.021c-7.203,0-15.361,2.716-19.578,13.288
		c0-0.066,0.013-0.125,0.013-0.192c0-3.962-0.666-7.276-1.933-10.043C337.808,329.484,343.249,327.313,355.766,327.313z
		 M265.37,402.716h-41.875v-2.329c7.317-1.21,8.632-3.186,8.632-11.935v-49.454c0-6.95-0.868-7.599-5.296-7.831
		c-0.916-0.049-2.018-0.106-3.337-0.272v-2.016h34.671c5.733,0,9.194-0.542,10.294-1.611h1.665l-1.1,14.167h-1.588l-0.059-0.268
		c-2.019-9.212-2.449-9.486-12.317-9.469h-7.135c-3.45,0-4.003,1.136-4.003,4.786v24.75h14.306c4.516,0,7.471-0.934,8.782-2.777
		c0.482-0.677,0.668-1.39,0.702-1.996h2.16l-1.166,18.55h-1.487c0-3.575-0.059-5.772-1.433-7.155
		c-1.428-1.436-3.983-1.69-8.823-1.69h-13.04v19.248c0,10.481,5.387,12.63,13.476,12.63l0.596,0.007
		c3.008,0.083,9.158,0.177,12.47-9.611l1.865-0.027C271.857,393.176,269.963,402.716,265.37,402.716z M308.249,402.255h-29.857
		v-0.324c8.067-0.983,8.784-8.596,8.784-15.765v-44.551c0-9.734-3.836-12.603-10.198-13.143h23.307
		c8.222-0.018,16.037-0.011,21.491,2.203c5.745,2.329,8.307,6.879,8.307,14.749c0,6.551-3.127,11.935-9.291,16.001
		c-4.797,3.163-10.391,4.804-14.619,5.513c7.016-2.451,14.586-5.553,14.586-17.526c0-10.569-6.321-18.226-15.728-19.056
		c-3.916-0.346-6.449,0.079-7.752,1.296c-0.846,0.792-0.92,1.645-0.913,1.933l-0.27,52.58c0,9.117,0.88,15.243,12.153,15.827
		V402.255z M386.989,367.081c-7.131,1.258-7.666,3.099-7.666,12.382v16.079c-5.112,6.822-17.247,7.563-22.268,7.563
		c-7.057,0-15.913-2.315-21.536-5.623c-11.108-6.593-17.076-17.099-17.399-30.389c5.367-2.487,10.412-6.287,13.257-11.756
		c-0.311,2.486-0.492,5.202-0.492,8.222c0,19.355,7.948,31.353,22.986,34.693c6.696,1.487,11.647,0.493,16.059-3.218l0.329-0.277
		v-18.501c0-7.919-0.988-8.715-8.546-9.255v-1.904h25.276V367.081z"/>
	<g>
		<g>
			<path fill="#FFFFFF" d="M212.229,449.729v3.939h9.085v3.981h-9.085v4.175h9.876v4.716h-15.563v-21.527h15.369v4.716H212.229z"/>
			<path fill="#FFFFFF" d="M231.065,450.006l0.347,16.534h-5.687v-21.527h9.598l6.103,16.534h0.236l-0.347-16.534h5.687v21.527
				h-9.682l-6.034-16.534H231.065z"/>
			<path fill="#FFFFFF" d="M269.196,451.712h-5.77c-0.037-0.666-0.227-1.158-0.569-1.477c-0.342-0.319-0.751-0.513-1.228-0.583
				c-0.476-0.069-1.098-0.104-1.865-0.104c-1.332,0-2.293,0.15-2.885,0.451c-0.592,0.301-0.962,0.751-1.11,1.352
				c-0.148,0.601-0.241,1.581-0.277,2.941v3.495c0,1.248,0.146,2.171,0.437,2.767c0.291,0.596,0.73,0.985,1.318,1.165
				c0.587,0.18,1.426,0.271,2.518,0.271c1.008,0,1.766-0.097,2.275-0.291c0.509-0.194,0.867-0.548,1.075-1.061
				c0.208-0.513,0.312-1.274,0.312-2.282H259.5v-3.981h9.695v3.759c0,1.886-0.139,3.375-0.417,4.466
				c-0.278,1.091-0.761,1.937-1.45,2.538c-0.689,0.601-1.624,1.012-2.804,1.234c-1.18,0.222-2.769,0.333-4.768,0.333
				c-1.841,0-3.366-0.106-4.574-0.319c-1.207-0.213-2.228-0.603-3.061-1.172c-0.833-0.569-1.455-1.382-1.867-2.441
				c-0.412-1.059-0.618-2.453-0.618-4.182v-5.576c0-1.72,0.229-3.128,0.687-4.224c0.458-1.096,1.115-1.93,1.971-2.504
				c0.856-0.573,1.888-0.959,3.096-1.158c1.207-0.199,2.663-0.298,4.365-0.298c1.777,0,3.172,0.049,4.185,0.146
				c1.013,0.097,1.92,0.356,2.72,0.777c0.8,0.421,1.423,1.107,1.867,2.06C268.973,448.767,269.196,450.066,269.196,451.712z"/>
			<path fill="#FFFFFF" d="M277.712,445.013v21.527h-5.687v-21.527H277.712z"/>
			<path fill="#FFFFFF" d="M286.548,450.006l0.347,16.534h-5.687v-21.527h9.598l6.103,16.534h0.236l-0.347-16.534h5.687v21.527
				h-9.682l-6.034-16.534H286.548z"/>
			<path fill="#FFFFFF" d="M311.723,449.729v3.939h9.085v3.981h-9.085v4.175h9.876v4.716h-15.563v-21.527h15.369v4.716H311.723z"/>
			<path fill="#FFFFFF" d="M330.989,449.729v3.939h9.085v3.981h-9.085v4.175h9.876v4.716h-15.563v-21.527h15.369v4.716H330.989z"/>
			<path fill="#FFFFFF" d="M344.36,466.54v-21.527h10.966c1.777,0.046,3.181,0.245,4.213,0.596c1.032,0.351,1.811,0.992,2.339,1.921
				c0.528,0.929,0.791,2.268,0.791,4.016c0,1.128-0.028,2.004-0.083,2.629c-0.056,0.624-0.201,1.195-0.437,1.713
				c-0.236,0.518-0.631,0.969-1.186,1.352c-0.555,0.384-1.332,0.691-2.33,0.922v0.222c1.193,0.046,2.129,0.398,2.809,1.054
				c0.68,0.657,1.02,1.577,1.02,2.76v4.341h-5.673v-3.01c0-1.803-0.777-2.705-2.33-2.705h-4.411v5.715H344.36z M350.047,455.832
				h4.411c0.749,0,1.288-0.099,1.616-0.298c0.328-0.199,0.534-0.518,0.617-0.957c0.083-0.439,0.125-1.14,0.125-2.101
				c0-0.962-0.162-1.614-0.486-1.956c-0.324-0.342-0.948-0.513-1.873-0.513h-4.411V455.832z"/>
			<path fill="#FFFFFF" d="M371.338,449.729v3.939h9.085v3.981h-9.085v4.175h9.876v4.716h-15.563v-21.527h15.369v4.716H371.338z"/>
			<path fill="#FFFFFF" d="M384.571,466.54v-21.527h10.805c2.006,0,3.639,0.275,4.896,0.825c1.257,0.55,2.185,1.433,2.781,2.649
				c0.596,1.216,0.895,2.841,0.895,4.876v4.508c0,2.016-0.243,3.655-0.728,4.917c-0.486,1.262-1.299,2.203-2.441,2.823
				c-1.142,0.62-2.689,0.929-4.64,0.929H384.571z M390.258,450.006v11.54h4.966c0.684,0,1.239-0.146,1.665-0.437
				c0.425-0.291,0.733-0.707,0.922-1.248c0.189-0.541,0.285-1.204,0.285-1.99v-4.508c0-1.341-0.213-2.235-0.638-2.684
				c-0.425-0.448-1.17-0.673-2.233-0.673H390.258z"/>
		</g>
		<g>
			<path fill="#FFFFFF" d="M206.967,490.909v-17.12h13.961c1.137,0,2.046,0.116,2.729,0.349c0.683,0.233,1.207,0.688,1.574,1.367
				c0.366,0.679,0.549,1.658,0.549,2.939c0,1.456-0.103,2.569-0.309,3.339c-0.206,0.77-0.69,1.359-1.452,1.767
				c-0.762,0.408-1.94,0.612-3.534,0.612h-11.219v6.747H206.967z M223.481,479.827v-1.613c0-0.968-0.248-1.631-0.743-1.99
				c-0.496-0.358-1.277-0.537-2.344-0.537h-11.127v6.576h11.31c0.961,0,1.685-0.191,2.173-0.572
				C223.237,481.31,223.481,480.689,223.481,479.827z"/>
			<path fill="#FFFFFF" d="M229.027,490.909v-17.12h2.299v17.12H229.027z"/>
			<path fill="#FFFFFF" d="M235.89,490.909v-17.12h13.961c1.137,0,2.046,0.116,2.729,0.349c0.683,0.233,1.207,0.688,1.574,1.367
				c0.366,0.679,0.549,1.658,0.549,2.939c0,1.456-0.103,2.569-0.309,3.339c-0.206,0.77-0.69,1.359-1.452,1.767
				c-0.762,0.408-1.94,0.612-3.534,0.612h-11.219v6.747H235.89z M252.403,479.827v-1.613c0-0.968-0.248-1.631-0.743-1.99
				c-0.496-0.358-1.277-0.537-2.344-0.537h-11.127v6.576h11.31c0.961,0,1.685-0.191,2.173-0.572
				C252.159,481.31,252.403,480.689,252.403,479.827z"/>
			<path fill="#FFFFFF" d="M257.881,490.909v-17.12h16.663v1.898H260.18v5.455h13.803v1.898H260.18v5.97h14.456v1.898H257.881z"/>
			<path fill="#FFFFFF" d="M310.202,482.412v2.356c0,1.182-0.101,2.173-0.303,2.973c-0.202,0.801-0.526,1.447-0.973,1.939
				c-0.446,0.492-1.032,0.85-1.756,1.075c-0.725,0.225-1.629,0.337-2.712,0.337h-9.463c-1.129,0-2.084-0.132-2.866-0.395
				c-0.782-0.263-1.402-0.656-1.859-1.178c-0.458-0.522-0.792-1.182-1.001-1.978c-0.21-0.797-0.315-1.752-0.315-2.865v-4.677
				c0-1.113,0.105-2.068,0.315-2.865c0.21-0.797,0.541-1.452,0.995-1.967c0.454-0.515,1.07-0.903,1.848-1.167
				c0.778-0.263,1.739-0.395,2.884-0.395h8.673c1.853,0,3.368,0.334,4.542,1.002c1.175,0.668,1.762,1.902,1.762,3.704v0.607h-2.172
				c0-0.837-0.082-1.477-0.245-1.918c-0.164-0.441-0.476-0.773-0.937-0.993c-0.461-0.221-1.08-0.364-1.857-0.428
				c-0.777-0.065-1.969-0.097-3.577-0.097h-5.943c-1.249,0-2.227,0.267-2.931,0.8c-0.705,0.533-1.057,1.485-1.057,2.857v6.433
				c0,1.371,0.35,2.318,1.051,2.84c0.701,0.522,1.68,0.783,2.937,0.783h8.96c1.219,0,2.141-0.243,2.765-0.73
				c0.625-0.487,0.937-1.293,0.937-2.419v-1.734h-8.686v-1.898H310.202z"/>
			<path fill="#FFFFFF" d="M314.113,490.909v-17.12h13.563c1.578,0,2.777,0.173,3.597,0.52c0.819,0.347,1.37,0.86,1.653,1.538
				c0.282,0.679,0.423,1.609,0.423,2.791v1.384c0,1.121-0.273,1.919-0.818,2.396c-0.545,0.477-1.313,0.761-2.304,0.852v0.046
				c1.098,0.191,1.856,0.555,2.276,1.092c0.419,0.538,0.629,1.245,0.629,2.121v4.38h-2.15v-3.774c0-0.854-0.132-1.498-0.395-1.933
				c-0.263-0.435-0.629-0.72-1.098-0.858c-0.469-0.137-1.096-0.206-1.881-0.206h-11.196v6.77H314.113z M316.412,482.24h11.013
				c0.839,0,1.529-0.082,2.07-0.246c0.541-0.164,0.936-0.427,1.184-0.789c0.248-0.362,0.372-0.844,0.372-1.447v-1.544
				c0-0.656-0.116-1.163-0.349-1.521c-0.233-0.358-0.652-0.616-1.258-0.772c-0.606-0.156-1.47-0.234-2.59-0.234h-10.441V482.24z"/>
			<path fill="#FFFFFF" d="M336.917,484.676v-4.677c0-1.113,0.105-2.068,0.315-2.865c0.21-0.797,0.542-1.452,0.996-1.967
				c0.454-0.515,1.07-0.903,1.848-1.167s1.739-0.395,2.884-0.395h9.772c1.152,0,2.115,0.13,2.889,0.389
				c0.774,0.259,1.39,0.65,1.848,1.172c0.458,0.522,0.789,1.18,0.995,1.973c0.206,0.793,0.309,1.746,0.309,2.859v4.677
				c0,1.113-0.101,2.068-0.303,2.865c-0.202,0.797-0.536,1.456-1.001,1.978c-0.465,0.522-1.087,0.915-1.865,1.178
				c-0.778,0.263-1.736,0.395-2.872,0.395h-9.772c-1.129,0-2.084-0.132-2.866-0.395c-0.782-0.263-1.402-0.656-1.859-1.178
				c-0.458-0.522-0.792-1.182-1.001-1.978C337.022,486.744,336.917,485.789,336.917,484.676z M356.473,485.571v-6.433
				c0-1.371-0.352-2.323-1.057-2.857c-0.705-0.533-1.678-0.8-2.92-0.8h-9.292c-1.249,0-2.227,0.267-2.931,0.8
				c-0.705,0.533-1.057,1.485-1.057,2.857v6.433c0,1.371,0.35,2.318,1.051,2.84c0.701,0.522,1.68,0.783,2.937,0.783h9.292
				c0.579,0,1.105-0.051,1.577-0.154c0.472-0.103,0.889-0.289,1.251-0.56c0.362-0.27,0.644-0.647,0.846-1.131
				C356.372,486.864,356.473,486.272,356.473,485.571z"/>
			<path fill="#FFFFFF" d="M362.82,486.597v-12.809h2.299v12.786c0,0.618,0.095,1.109,0.286,1.475
				c0.19,0.366,0.548,0.648,1.074,0.846c0.526,0.198,1.299,0.297,2.32,0.297h7.954c0.77,0,1.396-0.059,1.88-0.177
				c0.484-0.118,0.855-0.284,1.114-0.497c0.259-0.213,0.438-0.476,0.537-0.789c0.099-0.313,0.149-0.698,0.149-1.155v-12.786h2.299
				v12.809c0,1.159-0.202,2.064-0.607,2.716c-0.404,0.652-1.045,1.111-1.922,1.378c-0.877,0.267-2.048,0.4-3.513,0.4h-7.827
				c-1.465,0-2.636-0.133-3.513-0.4c-0.878-0.267-1.518-0.726-1.923-1.378C363.022,488.662,362.82,487.756,362.82,486.597z"/>
			<path fill="#FFFFFF" d="M387.226,490.909v-17.12h13.961c1.137,0,2.046,0.116,2.729,0.349c0.683,0.233,1.207,0.688,1.574,1.367
				c0.366,0.679,0.549,1.658,0.549,2.939c0,1.456-0.103,2.569-0.309,3.339c-0.206,0.77-0.69,1.359-1.452,1.767
				c-0.762,0.408-1.94,0.612-3.534,0.612h-11.219v6.747H387.226z M403.739,479.827v-1.613c0-0.968-0.248-1.631-0.743-1.99
				c-0.496-0.358-1.277-0.537-2.344-0.537h-11.127v6.576h11.31c0.961,0,1.685-0.191,2.173-0.572
				C403.495,481.31,403.739,480.689,403.739,479.827z"/>
		</g>
	</g>
</g>
<g>
</g>
<g>
</g>
<g>
</g>
<g>
</g>
<g>
</g>
<g>
</g>
</svg>
