<?xml version="1.0" encoding="UTF-8" standalone="no"?>
<!DOCTYPE svg PUBLIC "-//W3C//DTD SVG 1.1//EN" "http://www.w3.org/Graphics/SVG/1.1/DTD/svg11.dtd">
<svg width="100%" height="100%" viewBox="0 0 248 53" version="1.1" xmlns="http://www.w3.org/2000/svg" xmlns:xlink="http://www.w3.org/1999/xlink" xml:space="preserve" xmlns:serif="http://www.serif.com/" style="fill-rule:evenodd;clip-rule:evenodd;stroke-linejoin:round;stroke-miterlimit:2;">
    <g transform="matrix(1,0,0,1,-182.199,-369.445)">
        <g>
            <rect x="182.199" y="369.445" width="79.662" height="52.123" style="fill:rgb(17,40,75);"/>
            <g>
                <path d="M244.58,395.471L244.58,396.231C247.598,396.447 247.993,396.764 247.993,399.927L247.993,407.315L247.861,407.426C246.099,408.908 244.122,409.305 241.448,408.711C235.443,407.377 232.269,402.586 232.269,394.857C232.269,393.651 232.341,392.566 232.466,391.574C231.33,393.758 229.316,395.275 227.172,396.268C227.301,401.575 229.684,405.77 234.12,408.403C236.365,409.724 239.901,410.648 242.72,410.648C244.725,410.648 249.571,410.352 251.612,407.628L251.612,401.208C251.612,397.501 251.825,396.766 254.673,396.264L254.673,395.471L244.58,395.471Z" style="fill:white;fill-rule:nonzero;"/>
                <g>
                    <path d="M228.632,381.726C226.454,380.842 223.334,380.839 220.05,380.846L210.743,380.846C213.284,381.062 214.815,382.207 214.815,386.094L214.815,403.884C214.815,406.747 214.529,409.787 211.308,410.179L211.308,410.308L223.23,410.308L223.23,410.203C218.729,409.97 218.377,407.524 218.377,403.883L218.485,382.887C218.482,382.772 218.512,382.431 218.849,382.115C219.369,381.629 220.381,381.46 221.945,381.598C225.701,381.929 228.225,384.987 228.225,389.207C228.225,393.988 225.202,395.226 222.4,396.205C224.088,395.922 226.322,395.266 228.238,394.004C230.7,392.38 231.948,390.231 231.948,387.614C231.949,384.473 230.927,382.656 228.632,381.726Z" style="fill:white;fill-rule:nonzero;"/>
                    <path d="M233.421,387.615C233.421,387.642 233.416,387.665 233.416,387.692C235.1,383.47 238.357,382.386 241.234,382.386C245.858,382.386 250.825,384.516 251.073,389.183L251.682,389.184L251.487,381.798C248.558,380.756 244.682,380.383 242.206,380.383C237.208,380.383 235.035,381.25 232.65,383.605C233.155,384.709 233.421,386.033 233.421,387.615Z" style="fill:white;fill-rule:nonzero;"/>
                    <path d="M208.143,404.792C206.821,408.7 204.365,408.663 203.164,408.63L202.926,408.627C199.696,408.627 197.545,407.769 197.545,403.584L197.545,395.898L202.752,395.898C204.685,395.898 205.705,395.999 206.275,396.573C206.823,397.125 206.847,398.003 206.847,399.43L207.441,399.43L207.907,392.023L207.045,392.023C207.031,392.265 206.957,392.55 206.765,392.82C206.242,393.556 205.062,393.929 203.258,393.929L197.546,393.929L197.546,384.046C197.546,382.588 197.767,382.135 199.144,382.135L201.993,382.135C205.933,382.129 206.105,382.238 206.911,385.916L206.935,386.023L207.569,386.023L208.008,380.366L207.343,380.366C206.904,380.793 205.522,381.009 203.233,381.009L189.388,381.009L189.388,381.814C189.915,381.88 190.355,381.903 190.721,381.923C192.489,382.016 192.836,382.275 192.836,385.05L192.836,404.798C192.836,408.292 192.311,409.081 189.389,409.564L189.389,410.494L206.11,410.494C207.944,410.494 208.7,406.685 208.889,404.782L208.143,404.792Z" style="fill:white;fill-rule:nonzero;"/>
                </g>
            </g>
        </g>
        <g>
            <g>
                <path d="M278.489,381.315L278.489,384.381L285.56,384.381L285.56,387.479L278.489,387.479L278.489,390.729L286.175,390.729L286.175,394.4L274.062,394.4L274.062,377.645L286.024,377.645L286.024,381.316L278.489,381.316L278.489,381.315Z" style="fill:rgb(17,40,75);fill-rule:nonzero;"/>
                <path d="M293.149,381.531L293.419,394.399L288.993,394.399L288.993,377.644L296.464,377.644L301.214,390.512L301.398,390.512L301.128,377.644L305.554,377.644L305.554,394.4L298.019,394.4L293.323,381.532L293.149,381.532L293.149,381.531Z" style="fill:rgb(17,40,75);fill-rule:nonzero;"/>
                <path d="M322.827,382.859L318.336,382.859C318.307,382.341 318.16,381.958 317.893,381.709C317.627,381.461 317.308,381.31 316.938,381.256C316.567,381.202 316.083,381.175 315.486,381.175C314.45,381.175 313.701,381.292 313.24,381.526C312.779,381.76 312.491,382.111 312.376,382.579C312.261,383.047 312.189,383.81 312.16,384.868L312.16,387.589C312.16,388.561 312.273,389.279 312.5,389.743C312.727,390.207 313.068,390.51 313.526,390.65C313.983,390.79 314.636,390.861 315.486,390.861C316.27,390.861 316.86,390.785 317.256,390.634C317.652,390.483 317.931,390.208 318.093,389.808C318.255,389.409 318.336,388.817 318.336,388.032L315.281,388.032L315.281,384.934L322.827,384.934L322.827,387.86C322.827,389.328 322.719,390.487 322.503,391.336C322.287,392.185 321.911,392.844 321.374,393.312C320.837,393.78 320.11,394.1 319.192,394.273C318.274,394.446 317.037,394.532 315.481,394.532C314.048,394.532 312.861,394.449 311.921,394.284C310.981,394.119 310.187,393.814 309.539,393.372C308.891,392.929 308.407,392.296 308.086,391.472C307.766,390.648 307.605,389.563 307.605,388.217L307.605,383.877C307.605,382.538 307.783,381.443 308.14,380.59C308.496,379.737 309.008,379.088 309.674,378.641C310.34,378.195 311.143,377.894 312.083,377.74C313.023,377.585 314.155,377.508 315.48,377.508C316.863,377.508 317.949,377.546 318.737,377.621C319.526,377.697 320.231,377.898 320.854,378.226C321.477,378.554 321.961,379.088 322.307,379.829C322.654,380.567 322.827,381.578 322.827,382.859Z" style="fill:rgb(17,40,75);fill-rule:nonzero;"/>
                <rect x="325.029" y="377.645" width="4.426" height="16.755" style="fill:rgb(17,40,75);fill-rule:nonzero;"/>
                <path d="M336.332,381.531L336.602,394.399L332.176,394.399L332.176,377.644L339.647,377.644L344.397,390.512L344.581,390.512L344.311,377.644L348.737,377.644L348.737,394.4L341.202,394.4L336.506,381.532L336.332,381.532L336.332,381.531Z" style="fill:rgb(17,40,75);fill-rule:nonzero;"/>
                <path d="M355.926,381.315L355.926,384.381L362.997,384.381L362.997,387.479L355.926,387.479L355.926,390.729L363.612,390.729L363.612,394.4L351.5,394.4L351.5,377.645L363.462,377.645L363.462,381.316L355.926,381.316L355.926,381.315Z" style="fill:rgb(17,40,75);fill-rule:nonzero;"/>
                <path d="M370.921,381.315L370.921,384.381L377.992,384.381L377.992,387.479L370.921,387.479L370.921,390.729L378.607,390.729L378.607,394.4L366.494,394.4L366.494,377.645L378.456,377.645L378.456,381.316L370.921,381.316L370.921,381.315Z" style="fill:rgb(17,40,75);fill-rule:nonzero;"/>
                <path d="M381.328,394.4L381.328,377.645L389.863,377.645C391.246,377.681 392.339,377.836 393.142,378.109C393.945,378.383 394.552,378.881 394.962,379.604C395.373,380.327 395.578,381.369 395.578,382.729C395.578,383.607 395.556,384.289 395.513,384.775C395.47,385.261 395.356,385.705 395.173,386.108C394.99,386.511 394.682,386.862 394.25,387.161C393.818,387.46 393.214,387.699 392.436,387.879L392.436,388.052C393.364,388.088 394.093,388.362 394.622,388.873C395.151,389.384 395.416,390.1 395.416,391.021L395.416,394.4L391.001,394.4L391.001,392.057C391.001,390.654 390.396,389.952 389.187,389.952L385.754,389.952L385.754,394.4L381.328,394.4ZM385.754,386.065L389.187,386.065C389.77,386.065 390.189,385.988 390.445,385.833C390.7,385.678 390.861,385.43 390.925,385.088C390.99,384.746 391.022,384.201 391.022,383.452C391.022,382.704 390.896,382.196 390.644,381.93C390.392,381.664 389.906,381.531 389.187,381.531L385.754,381.531L385.754,386.065Z" style="fill:rgb(17,40,75);fill-rule:nonzero;"/>
                <path d="M402.326,381.315L402.326,384.381L409.397,384.381L409.397,387.479L402.326,387.479L402.326,390.729L410.012,390.729L410.012,394.4L397.9,394.4L397.9,377.645L409.862,377.645L409.862,381.316L402.326,381.316L402.326,381.315Z" style="fill:rgb(17,40,75);fill-rule:nonzero;"/>
                <path d="M412.625,394.4L412.625,377.645L421.035,377.645C422.597,377.645 423.867,377.859 424.846,378.287C425.825,378.715 426.546,379.403 427.01,380.349C427.474,381.296 427.706,382.56 427.706,384.144L427.706,387.653C427.706,389.222 427.517,390.498 427.139,391.48C426.761,392.462 426.128,393.195 425.239,393.677C424.35,394.159 423.146,394.4 421.628,394.4L412.625,394.4ZM417.051,381.53L417.051,390.513L420.916,390.513C421.449,390.513 421.88,390.4 422.212,390.173C422.543,389.946 422.782,389.622 422.93,389.201C423.077,388.78 423.151,388.264 423.151,387.652L423.151,384.143C423.151,383.099 422.985,382.403 422.654,382.054C422.323,381.705 421.743,381.53 420.916,381.53L417.051,381.53Z" style="fill:rgb(17,40,75);fill-rule:nonzero;"/>
            </g>
            <g>
                <path d="M274.393,413.366L274.393,400.041L285.259,400.041C286.144,400.041 286.852,400.132 287.383,400.312C287.914,400.493 288.323,400.848 288.608,401.376C288.893,401.904 289.036,402.667 289.036,403.664C289.036,404.797 288.956,405.664 288.796,406.263C288.636,406.862 288.259,407.321 287.665,407.638C287.072,407.956 286.155,408.114 284.915,408.114L276.183,408.114L276.183,413.366L274.393,413.366ZM287.246,404.741L287.246,403.486C287.246,402.732 287.053,402.216 286.667,401.937C286.281,401.658 285.673,401.519 284.842,401.519L276.181,401.519L276.181,406.637L284.984,406.637C285.732,406.637 286.295,406.489 286.675,406.192C287.056,405.895 287.246,405.412 287.246,404.741Z" style="fill:rgb(17,40,75);fill-rule:nonzero;"/>
                <rect x="291.563" y="400.041" width="1.789" height="13.325" style="fill:rgb(17,40,75);fill-rule:nonzero;"/>
                <path d="M296.904,413.366L296.904,400.041L307.77,400.041C308.655,400.041 309.363,400.132 309.894,400.312C310.426,400.493 310.834,400.848 311.119,401.376C311.404,401.904 311.546,402.667 311.546,403.664C311.546,404.797 311.466,405.664 311.306,406.263C311.146,406.862 310.769,407.321 310.176,407.638C309.583,407.956 308.666,408.114 307.426,408.114L298.694,408.114L298.694,413.366L296.904,413.366ZM309.757,404.741L309.757,403.486C309.757,402.732 309.564,402.216 309.178,401.937C308.792,401.658 308.184,401.519 307.353,401.519L298.692,401.519L298.692,406.637L307.495,406.637C308.243,406.637 308.806,406.489 309.186,406.192C309.567,405.895 309.757,405.412 309.757,404.741Z" style="fill:rgb(17,40,75);fill-rule:nonzero;"/>
                <path d="M314.021,413.367L314.021,400.041L326.99,400.041L326.99,401.519L315.81,401.519L315.81,405.765L326.553,405.765L326.553,407.243L315.81,407.243L315.81,411.889L327.061,411.889L327.061,413.367L314.021,413.367Z" style="fill:rgb(17,40,75);fill-rule:nonzero;"/>
                <path d="M354.743,406.752L354.743,408.587C354.743,409.507 354.664,410.278 354.507,410.901C354.35,411.524 354.097,412.027 353.75,412.41C353.403,412.793 352.947,413.072 352.383,413.247C351.819,413.422 351.115,413.51 350.272,413.51L342.907,413.51C342.028,413.51 341.285,413.408 340.676,413.203C340.067,412.998 339.585,412.693 339.229,412.286C338.873,411.88 338.613,411.366 338.45,410.746C338.287,410.126 338.205,409.383 338.205,408.516L338.205,404.875C338.205,404.009 338.287,403.265 338.45,402.645C338.613,402.025 338.871,401.515 339.225,401.114C339.578,400.713 340.058,400.411 340.663,400.206C341.268,400.001 342.016,399.899 342.907,399.899L349.657,399.899C351.099,399.899 352.278,400.159 353.192,400.679C354.106,401.199 354.564,402.16 354.564,403.562L354.564,404.034L352.874,404.034C352.874,403.382 352.81,402.885 352.683,402.541C352.555,402.197 352.312,401.94 351.953,401.768C351.594,401.596 351.112,401.485 350.507,401.435C349.902,401.385 348.974,401.359 347.723,401.359L343.098,401.359C342.126,401.359 341.365,401.567 340.816,401.982C340.268,402.397 339.993,403.138 339.993,404.205L339.993,409.212C339.993,410.279 340.266,411.016 340.811,411.422C341.357,411.828 342.119,412.031 343.097,412.031L350.071,412.031C351.02,412.031 351.737,411.842 352.223,411.463C352.709,411.084 352.952,410.456 352.952,409.58L352.952,408.23L346.192,408.23L346.192,406.752L354.743,406.752Z" style="fill:rgb(17,40,75);fill-rule:nonzero;"/>
                <path d="M357.787,413.366L357.787,400.041L368.344,400.041C369.572,400.041 370.505,400.176 371.143,400.446C371.781,400.716 372.209,401.115 372.429,401.643C372.648,402.171 372.758,402.895 372.758,403.815L372.758,404.892C372.758,405.764 372.546,406.386 372.122,406.757C371.698,407.128 371.1,407.349 370.329,407.42L370.329,407.456C371.183,407.604 371.774,407.888 372.1,408.306C372.426,408.724 372.59,409.275 372.59,409.957L372.59,413.366L370.917,413.366L370.917,410.429C370.917,409.764 370.815,409.263 370.61,408.925C370.405,408.587 370.121,408.364 369.756,408.257C369.391,408.15 368.903,408.097 368.292,408.097L359.578,408.097L359.578,413.366L357.787,413.366ZM359.575,406.619L368.148,406.619C368.801,406.619 369.338,406.555 369.759,406.428C370.18,406.3 370.487,406.096 370.68,405.814C370.873,405.532 370.969,405.157 370.969,404.688L370.969,403.486C370.969,402.976 370.878,402.581 370.697,402.302C370.516,402.023 370.19,401.823 369.718,401.701C369.246,401.58 368.574,401.519 367.702,401.519L359.575,401.519L359.575,406.619Z" style="fill:rgb(17,40,75);fill-rule:nonzero;"/>
                <path d="M375.535,408.515L375.535,404.874C375.535,404.008 375.617,403.264 375.78,402.644C375.943,402.024 376.202,401.514 376.555,401.113C376.908,400.712 377.388,400.41 377.993,400.205C378.599,400 379.347,399.898 380.237,399.898L387.843,399.898C388.739,399.898 389.489,399.999 390.091,400.201C390.694,400.403 391.173,400.707 391.529,401.113C391.885,401.52 392.143,402.031 392.304,402.648C392.464,403.265 392.544,404.007 392.544,404.873L392.544,408.514C392.544,409.38 392.465,410.124 392.308,410.744C392.151,411.364 391.891,411.877 391.529,412.284C391.167,412.691 390.683,412.996 390.077,413.201C389.471,413.406 388.726,413.508 387.842,413.508L380.236,413.508C379.357,413.508 378.614,413.406 378.005,413.201C377.396,412.996 376.914,412.691 376.558,412.284C376.202,411.878 375.942,411.364 375.779,410.744C375.617,410.125 375.535,409.382 375.535,408.515ZM390.756,409.212L390.756,404.205C390.756,403.138 390.482,402.397 389.933,401.982C389.384,401.567 388.627,401.359 387.66,401.359L380.428,401.359C379.456,401.359 378.695,401.567 378.146,401.982C377.598,402.397 377.323,403.138 377.323,404.205L377.323,409.212C377.323,410.279 377.596,411.016 378.141,411.422C378.687,411.828 379.449,412.031 380.427,412.031L387.659,412.031C388.11,412.031 388.519,411.991 388.887,411.911C389.255,411.831 389.579,411.686 389.861,411.475C390.143,411.265 390.362,410.971 390.519,410.595C390.677,410.218 390.756,409.757 390.756,409.212Z" style="fill:rgb(17,40,75);fill-rule:nonzero;"/>
                <path d="M395.696,410.011L395.696,400.042L397.485,400.042L397.485,409.993C397.485,410.474 397.559,410.856 397.707,411.141C397.855,411.426 398.134,411.645 398.543,411.8C398.952,411.954 399.554,412.031 400.349,412.031L406.539,412.031C407.138,412.031 407.626,411.985 408.002,411.893C408.379,411.801 408.667,411.672 408.869,411.506C409.071,411.34 409.21,411.135 409.287,410.892C409.364,410.649 409.403,410.349 409.403,409.993L409.403,400.042L411.192,400.042L411.192,410.011C411.192,410.913 411.035,411.618 410.72,412.125C410.405,412.632 409.906,412.99 409.224,413.198C408.541,413.406 407.63,413.51 406.49,413.51L400.398,413.51C399.258,413.51 398.347,413.406 397.664,413.198C396.981,412.99 396.482,412.633 396.168,412.125C395.853,411.617 395.696,410.913 395.696,410.011Z" style="fill:rgb(17,40,75);fill-rule:nonzero;"/>
                <path d="M414.691,413.366L414.691,400.041L425.557,400.041C426.442,400.041 427.15,400.132 427.681,400.312C428.213,400.493 428.621,400.848 428.906,401.376C429.191,401.904 429.334,402.667 429.334,403.664C429.334,404.797 429.254,405.664 429.094,406.263C428.934,406.862 428.557,407.321 427.964,407.638C427.371,407.956 426.454,408.114 425.214,408.114L416.482,408.114L416.482,413.366L414.691,413.366ZM427.544,404.741L427.544,403.486C427.544,402.732 427.351,402.216 426.965,401.937C426.579,401.658 425.971,401.519 425.14,401.519L416.479,401.519L416.479,406.637L425.282,406.637C426.03,406.637 426.593,406.489 426.973,406.192C427.354,405.895 427.544,405.412 427.544,404.741Z" style="fill:rgb(17,40,75);fill-rule:nonzero;"/>
            </g>
        </g>
    </g>
</svg>
