<?xml version="1.0" encoding="UTF-8" standalone="no"?>
<!DOCTYPE svg PUBLIC "-//W3C//DTD SVG 1.1//EN" "http://www.w3.org/Graphics/SVG/1.1/DTD/svg11.dtd">
<svg width="100%" height="100%" viewBox="0 0 201 192" version="1.1" xmlns="http://www.w3.org/2000/svg" xmlns:xlink="http://www.w3.org/1999/xlink" xml:space="preserve" xmlns:serif="http://www.serif.com/" style="fill-rule:evenodd;clip-rule:evenodd;stroke-linejoin:round;stroke-miterlimit:2;">
    <g transform="matrix(1,0,0,1,-205.494,-299.921)">
        <path d="M205.494,299.921L205.494,430.451L404.99,430.451L404.99,299.921L205.494,299.921ZM355.766,327.313C361.967,327.313 371.673,328.247 379.008,330.857L379.496,349.353L377.972,349.349C377.351,337.663 364.912,332.328 353.333,332.328C346.13,332.328 337.972,335.044 333.755,345.616C333.755,345.55 333.768,345.491 333.768,345.424C333.768,341.462 333.102,338.148 331.835,335.381C337.808,329.484 343.249,327.313 355.766,327.313ZM265.37,402.716L223.495,402.716L223.495,400.387C230.812,399.177 232.127,397.201 232.127,388.452L232.127,338.998C232.127,332.048 231.259,331.399 226.831,331.167C225.915,331.118 224.813,331.061 223.494,330.895L223.494,328.879L258.165,328.879C263.898,328.879 267.359,328.337 268.459,327.268L270.124,327.268L269.024,341.435L267.436,341.435L267.377,341.167C265.358,331.955 264.928,331.681 255.06,331.698L247.925,331.698C244.475,331.698 243.922,332.834 243.922,336.484L243.922,361.234L258.228,361.234C262.744,361.234 265.699,360.3 267.01,358.457C267.492,357.78 267.678,357.067 267.712,356.461L269.872,356.461L268.706,375.011L267.219,375.011C267.219,371.436 267.16,369.239 265.786,367.856C264.358,366.42 261.803,366.166 256.963,366.166L243.923,366.166L243.923,385.414C243.923,395.895 249.31,398.044 257.399,398.044L257.995,398.051C261.003,398.134 267.153,398.228 270.465,388.44L272.33,388.413C271.857,393.176 269.963,402.716 265.37,402.716ZM308.249,402.255L278.392,402.255L278.392,401.931C286.459,400.948 287.176,393.335 287.176,386.166L287.176,341.615C287.176,331.881 283.34,329.012 276.978,328.472L300.285,328.472C308.507,328.454 316.322,328.461 321.776,330.675C327.521,333.004 330.083,337.554 330.083,345.424C330.083,351.975 326.956,357.359 320.792,361.425C315.995,364.588 310.401,366.229 306.173,366.938C313.189,364.487 320.759,361.385 320.759,349.412C320.759,338.843 314.438,331.186 305.031,330.356C301.115,330.01 298.582,330.435 297.279,331.652C296.433,332.444 296.359,333.297 296.366,333.585L296.096,386.165C296.096,395.282 296.976,401.408 308.249,401.992L308.249,402.255ZM386.989,367.081C379.858,368.339 379.323,370.18 379.323,379.463L379.323,395.542C374.211,402.364 362.076,403.105 357.055,403.105C349.998,403.105 341.142,400.79 335.519,397.482C324.411,390.889 318.443,380.383 318.12,367.093C323.487,364.606 328.532,360.806 331.377,355.337C331.066,357.823 330.885,360.539 330.885,363.559C330.885,382.914 338.833,394.912 353.871,398.252C360.567,399.739 365.518,398.745 369.93,395.034L370.259,394.757L370.259,376.256C370.259,368.337 369.271,367.541 361.713,367.001L361.713,365.097L386.989,365.097L386.989,367.081Z" style="fill:white;fill-rule:nonzero;"/>
    </g>
    <g transform="matrix(1,0,0,1,-205.494,-299.921)">
        <g>
            <path d="M212.229,449.729L212.229,453.668L221.314,453.668L221.314,457.649L212.229,457.649L212.229,461.824L222.105,461.824L222.105,466.54L206.542,466.54L206.542,445.013L221.911,445.013L221.911,449.729L212.229,449.729Z" style="fill:white;fill-rule:nonzero;"/>
            <path d="M231.065,450.006L231.412,466.54L225.725,466.54L225.725,445.013L235.323,445.013L241.426,461.547L241.662,461.547L241.315,445.013L247.002,445.013L247.002,466.54L237.32,466.54L231.286,450.006L231.065,450.006Z" style="fill:white;fill-rule:nonzero;"/>
            <path d="M269.196,451.712L263.426,451.712C263.389,451.046 263.199,450.554 262.857,450.235C262.515,449.916 262.106,449.722 261.629,449.652C261.153,449.583 260.531,449.548 259.764,449.548C258.432,449.548 257.471,449.698 256.879,449.999C256.287,450.3 255.917,450.75 255.769,451.351C255.621,451.952 255.528,452.932 255.492,454.292L255.492,457.787C255.492,459.035 255.638,459.958 255.929,460.554C256.22,461.15 256.659,461.539 257.247,461.719C257.834,461.899 258.673,461.99 259.765,461.99C260.773,461.99 261.531,461.893 262.04,461.699C262.549,461.505 262.907,461.151 263.115,460.638C263.323,460.125 263.427,459.364 263.427,458.356L259.5,458.356L259.5,454.375L269.195,454.375L269.195,458.134C269.195,460.02 269.056,461.509 268.778,462.6C268.5,463.691 268.017,464.537 267.328,465.138C266.639,465.739 265.704,466.15 264.524,466.372C263.344,466.594 261.755,466.705 259.756,466.705C257.915,466.705 256.39,466.599 255.182,466.386C253.975,466.173 252.954,465.783 252.121,465.214C251.288,464.645 250.666,463.832 250.254,462.773C249.842,461.714 249.636,460.32 249.636,458.591L249.636,453.015C249.636,451.295 249.865,449.887 250.323,448.791C250.781,447.695 251.438,446.861 252.294,446.287C253.15,445.714 254.182,445.328 255.39,445.129C256.597,444.93 258.053,444.831 259.755,444.831C261.532,444.831 262.927,444.88 263.94,444.977C264.953,445.074 265.86,445.333 266.66,445.754C267.46,446.175 268.083,446.861 268.527,447.814C268.973,448.767 269.196,450.066 269.196,451.712Z" style="fill:white;fill-rule:nonzero;"/>
            <rect x="272.025" y="445.013" width="5.687" height="21.527" style="fill:white;fill-rule:nonzero;"/>
            <path d="M286.548,450.006L286.895,466.54L281.208,466.54L281.208,445.013L290.806,445.013L296.909,461.547L297.145,461.547L296.798,445.013L302.485,445.013L302.485,466.54L292.803,466.54L286.769,450.006L286.548,450.006Z" style="fill:white;fill-rule:nonzero;"/>
            <path d="M311.723,449.729L311.723,453.668L320.808,453.668L320.808,457.649L311.723,457.649L311.723,461.824L321.599,461.824L321.599,466.54L306.036,466.54L306.036,445.013L321.405,445.013L321.405,449.729L311.723,449.729Z" style="fill:white;fill-rule:nonzero;"/>
            <path d="M330.989,449.729L330.989,453.668L340.074,453.668L340.074,457.649L330.989,457.649L330.989,461.824L340.865,461.824L340.865,466.54L325.302,466.54L325.302,445.013L340.671,445.013L340.671,449.729L330.989,449.729Z" style="fill:white;fill-rule:nonzero;"/>
            <path d="M344.36,466.54L344.36,445.013L355.326,445.013C357.103,445.059 358.507,445.258 359.539,445.609C360.571,445.96 361.35,446.601 361.878,447.53C362.406,448.459 362.669,449.798 362.669,451.546C362.669,452.674 362.641,453.55 362.586,454.175C362.53,454.799 362.385,455.37 362.149,455.888C361.913,456.406 361.518,456.857 360.963,457.24C360.408,457.624 359.631,457.931 358.633,458.162L358.633,458.384C359.826,458.43 360.762,458.782 361.442,459.438C362.122,460.095 362.462,461.015 362.462,462.198L362.462,466.539L356.789,466.539L356.789,463.529C356.789,461.726 356.012,460.824 354.459,460.824L350.048,460.824L350.048,466.539L344.36,466.539L344.36,466.54ZM350.046,455.832L354.458,455.832C355.207,455.832 355.746,455.733 356.074,455.534C356.402,455.335 356.608,455.016 356.691,454.577C356.774,454.138 356.816,453.437 356.816,452.476C356.816,451.514 356.654,450.862 356.33,450.52C356.006,450.178 355.382,450.007 354.457,450.007L350.046,450.007L350.046,455.832Z" style="fill:white;fill-rule:nonzero;"/>
            <path d="M371.338,449.729L371.338,453.668L380.423,453.668L380.423,457.649L371.338,457.649L371.338,461.824L381.214,461.824L381.214,466.54L365.651,466.54L365.651,445.013L381.02,445.013L381.02,449.729L371.338,449.729Z" style="fill:white;fill-rule:nonzero;"/>
            <path d="M384.571,466.54L384.571,445.013L395.376,445.013C397.382,445.013 399.015,445.288 400.272,445.838C401.529,446.388 402.457,447.271 403.053,448.487C403.649,449.703 403.948,451.328 403.948,453.363L403.948,457.871C403.948,459.887 403.705,461.526 403.22,462.788C402.734,464.05 401.921,464.991 400.779,465.611C399.637,466.231 398.09,466.54 396.139,466.54L384.571,466.54ZM390.258,450.006L390.258,461.546L395.224,461.546C395.908,461.546 396.463,461.4 396.889,461.109C397.314,460.818 397.622,460.402 397.811,459.861C398,459.32 398.096,458.657 398.096,457.871L398.096,453.363C398.096,452.022 397.883,451.128 397.458,450.679C397.033,450.231 396.288,450.006 395.225,450.006L390.258,450.006Z" style="fill:white;fill-rule:nonzero;"/>
        </g>
        <g>
            <path d="M206.967,490.909L206.967,473.789L220.928,473.789C222.065,473.789 222.974,473.905 223.657,474.138C224.34,474.371 224.864,474.826 225.231,475.505C225.597,476.184 225.78,477.163 225.78,478.444C225.78,479.9 225.677,481.013 225.471,481.783C225.265,482.553 224.781,483.142 224.019,483.55C223.257,483.958 222.079,484.162 220.485,484.162L209.266,484.162L209.266,490.909L206.967,490.909ZM223.481,479.827L223.481,478.214C223.481,477.246 223.233,476.583 222.738,476.224C222.242,475.866 221.461,475.687 220.394,475.687L209.267,475.687L209.267,482.263L220.577,482.263C221.538,482.263 222.262,482.072 222.75,481.691C223.237,481.31 223.481,480.689 223.481,479.827Z" style="fill:white;fill-rule:nonzero;"/>
            <rect x="229.027" y="473.789" width="2.299" height="17.12" style="fill:white;fill-rule:nonzero;"/>
            <path d="M235.89,490.909L235.89,473.789L249.851,473.789C250.988,473.789 251.897,473.905 252.58,474.138C253.263,474.371 253.787,474.826 254.154,475.505C254.52,476.184 254.703,477.163 254.703,478.444C254.703,479.9 254.6,481.013 254.394,481.783C254.188,482.553 253.704,483.142 252.942,483.55C252.18,483.958 251.002,484.162 249.408,484.162L238.189,484.162L238.189,490.909L235.89,490.909ZM252.403,479.827L252.403,478.214C252.403,477.246 252.155,476.583 251.66,476.224C251.164,475.866 250.383,475.687 249.316,475.687L238.189,475.687L238.189,482.263L249.499,482.263C250.46,482.263 251.184,482.072 251.672,481.691C252.159,481.31 252.403,480.689 252.403,479.827Z" style="fill:white;fill-rule:nonzero;"/>
            <path d="M257.881,490.909L257.881,473.789L274.544,473.789L274.544,475.687L260.18,475.687L260.18,481.142L273.983,481.142L273.983,483.04L260.18,483.04L260.18,489.01L274.636,489.01L274.636,490.908L257.881,490.908L257.881,490.909Z" style="fill:white;fill-rule:nonzero;"/>
            <path d="M310.202,482.412L310.202,484.768C310.202,485.95 310.101,486.941 309.899,487.741C309.697,488.542 309.373,489.188 308.926,489.68C308.48,490.172 307.894,490.53 307.17,490.755C306.445,490.98 305.541,491.092 304.458,491.092L294.995,491.092C293.866,491.092 292.911,490.96 292.129,490.697C291.347,490.434 290.727,490.041 290.27,489.519C289.812,488.997 289.478,488.337 289.269,487.541C289.059,486.744 288.954,485.789 288.954,484.676L288.954,479.999C288.954,478.886 289.059,477.931 289.269,477.134C289.479,476.337 289.81,475.682 290.264,475.167C290.718,474.652 291.334,474.264 292.112,474C292.89,473.737 293.851,473.605 294.996,473.605L303.669,473.605C305.522,473.605 307.037,473.939 308.211,474.607C309.386,475.275 309.973,476.509 309.973,478.311L309.973,478.918L307.801,478.918C307.801,478.081 307.719,477.441 307.556,477C307.392,476.559 307.08,476.227 306.619,476.007C306.158,475.786 305.539,475.643 304.762,475.579C303.985,475.514 302.793,475.482 301.185,475.482L295.242,475.482C293.993,475.482 293.015,475.749 292.311,476.282C291.606,476.815 291.254,477.767 291.254,479.139L291.254,485.572C291.254,486.943 291.604,487.89 292.305,488.412C293.006,488.934 293.985,489.195 295.242,489.195L304.202,489.195C305.421,489.195 306.343,488.952 306.967,488.465C307.592,487.978 307.904,487.172 307.904,486.046L307.904,484.312L299.218,484.312L299.218,482.414L310.202,482.414L310.202,482.412Z" style="fill:white;fill-rule:nonzero;"/>
            <path d="M314.113,490.909L314.113,473.789L327.676,473.789C329.254,473.789 330.453,473.962 331.273,474.309C332.092,474.656 332.643,475.169 332.926,475.847C333.208,476.526 333.349,477.456 333.349,478.638L333.349,480.022C333.349,481.143 333.076,481.941 332.531,482.418C331.986,482.895 331.218,483.179 330.227,483.27L330.227,483.316C331.325,483.507 332.083,483.871 332.503,484.408C332.922,484.946 333.132,485.653 333.132,486.529L333.132,490.909L330.982,490.909L330.982,487.135C330.982,486.281 330.85,485.637 330.587,485.202C330.324,484.767 329.958,484.482 329.489,484.344C329.02,484.207 328.393,484.138 327.608,484.138L316.412,484.138L316.412,490.908L314.113,490.908L314.113,490.909ZM316.412,482.24L327.425,482.24C328.264,482.24 328.954,482.158 329.495,481.994C330.036,481.83 330.431,481.567 330.679,481.205C330.927,480.843 331.051,480.361 331.051,479.758L331.051,478.214C331.051,477.558 330.935,477.051 330.702,476.693C330.469,476.335 330.05,476.077 329.444,475.921C328.838,475.765 327.974,475.687 326.854,475.687L316.413,475.687L316.413,482.24L316.412,482.24Z" style="fill:white;fill-rule:nonzero;"/>
            <path d="M336.917,484.676L336.917,479.999C336.917,478.886 337.022,477.931 337.232,477.134C337.442,476.337 337.774,475.682 338.228,475.167C338.682,474.652 339.298,474.264 340.076,474C340.854,473.736 341.815,473.605 342.96,473.605L352.732,473.605C353.884,473.605 354.847,473.735 355.621,473.994C356.395,474.253 357.011,474.644 357.469,475.166C357.927,475.688 358.258,476.346 358.464,477.139C358.67,477.932 358.773,478.885 358.773,479.998L358.773,484.675C358.773,485.788 358.672,486.743 358.47,487.54C358.268,488.337 357.934,488.996 357.469,489.518C357.004,490.04 356.382,490.433 355.604,490.696C354.826,490.959 353.868,491.091 352.732,491.091L342.96,491.091C341.831,491.091 340.876,490.959 340.094,490.696C339.312,490.433 338.692,490.04 338.235,489.518C337.777,488.996 337.443,488.336 337.234,487.54C337.022,486.744 336.917,485.789 336.917,484.676ZM356.473,485.571L356.473,479.138C356.473,477.767 356.121,476.815 355.416,476.281C354.711,475.748 353.738,475.481 352.496,475.481L343.204,475.481C341.955,475.481 340.977,475.748 340.273,476.281C339.568,476.814 339.216,477.766 339.216,479.138L339.216,485.571C339.216,486.942 339.566,487.889 340.267,488.411C340.968,488.933 341.947,489.194 343.204,489.194L352.496,489.194C353.075,489.194 353.601,489.143 354.073,489.04C354.545,488.937 354.962,488.751 355.324,488.48C355.686,488.21 355.968,487.833 356.17,487.349C356.372,486.864 356.473,486.272 356.473,485.571Z" style="fill:white;fill-rule:nonzero;"/>
            <path d="M362.82,486.597L362.82,473.788L365.119,473.788L365.119,486.574C365.119,487.192 365.214,487.683 365.405,488.049C365.595,488.415 365.953,488.697 366.479,488.895C367.005,489.093 367.778,489.192 368.799,489.192L376.753,489.192C377.523,489.192 378.149,489.133 378.633,489.015C379.117,488.897 379.488,488.731 379.747,488.518C380.006,488.305 380.185,488.042 380.284,487.729C380.383,487.416 380.433,487.031 380.433,486.574L380.433,473.788L382.732,473.788L382.732,486.597C382.732,487.756 382.53,488.661 382.125,489.313C381.721,489.965 381.08,490.424 380.203,490.691C379.326,490.958 378.155,491.091 376.69,491.091L368.863,491.091C367.398,491.091 366.227,490.958 365.35,490.691C364.472,490.424 363.832,489.965 363.427,489.313C363.022,488.662 362.82,487.756 362.82,486.597Z" style="fill:white;fill-rule:nonzero;"/>
            <path d="M387.226,490.909L387.226,473.789L401.187,473.789C402.324,473.789 403.233,473.905 403.916,474.138C404.599,474.371 405.123,474.826 405.49,475.505C405.856,476.184 406.039,477.163 406.039,478.444C406.039,479.9 405.936,481.013 405.73,481.783C405.524,482.553 405.04,483.142 404.278,483.55C403.516,483.958 402.338,484.162 400.744,484.162L389.525,484.162L389.525,490.909L387.226,490.909ZM403.739,479.827L403.739,478.214C403.739,477.246 403.491,476.583 402.996,476.224C402.5,475.866 401.719,475.687 400.652,475.687L389.525,475.687L389.525,482.263L400.835,482.263C401.796,482.263 402.52,482.072 403.008,481.691C403.495,481.31 403.739,480.689 403.739,479.827Z" style="fill:white;fill-rule:nonzero;"/>
        </g>
    </g>
</svg>
