<?xml version="1.0" encoding="iso-8859-1"?>
<!-- Generator: Adobe Illustrator 26.5.3, SVG Export Plug-In . SVG Version: 6.00 Build 0)  -->
<svg version="1.1" id="Layer_1" xmlns="http://www.w3.org/2000/svg" xmlns:xlink="http://www.w3.org/1999/xlink" x="0px" y="0px"
	 width="612px" height="792px" viewBox="0 0 612 792" enable-background="new 0 0 612 792" xml:space="preserve">
<path fill="#FFFFFF" d="M283.003,415.88c0-13.582,0-27.164,0-40.746c0.025-0.09,0.058-0.178,0.074-0.27
	c0.189-1.089,0.96-1.86,2.046-2.046c0.092-0.016,0.18-0.049,0.27-0.075c13.582,0,27.164,0,40.746,0
	c0.09,0.025,0.179,0.059,0.27,0.075c1.087,0.187,1.858,0.958,2.045,2.045c0.016,0.092,0.05,0.181,0.075,0.271
	c0,13.595,0,27.189,0,40.784c-0.025,0.076-0.06,0.151-0.074,0.229c-0.194,1.097-0.957,1.86-2.049,2.049
	c-0.078,0.014-0.153,0.049-0.229,0.074c-3.908,0-7.815,0-11.723,0c0.002-0.139,0.005-0.278,0.005-0.417c0-5.646,0-11.292,0-16.939
	c0-0.086,0-0.173,0-0.275c0.098,0,0.173,0,0.247,0c1.77,0,3.541,0,5.311,0c0.365,0,0.357-0.001,0.4-0.364
	c0.114-0.952,0.233-1.904,0.355-2.855c0.146-1.139,0.299-2.276,0.447-3.415c0.034-0.259,0.029-0.26-0.244-0.26
	c-2.087,0-4.173,0-6.26,0c-0.081,0-0.161,0-0.247,0c-0.004-0.066-0.01-0.109-0.01-0.153c0-1.448-0.009-2.896,0.006-4.344
	c0.004-0.395,0.048-0.795,0.126-1.182c0.193-0.963,0.766-1.603,1.735-1.816c0.502-0.11,1.023-0.166,1.537-0.178
	c1.131-0.026,2.263-0.012,3.395-0.004c0.184,0.001,0.236-0.054,0.234-0.236c-0.008-1.043-0.004-2.086-0.004-3.13
	c0-0.885-0.003-1.77,0.003-2.656c0.001-0.154-0.051-0.212-0.205-0.22c-0.277-0.014-0.553-0.061-0.83-0.071
	c-1.491-0.054-2.981-0.12-4.472-0.143c-1.301-0.02-2.564,0.214-3.772,0.716c-1.807,0.75-3.135,2.009-3.982,3.769
	c-0.624,1.297-0.899,2.681-0.92,4.11c-0.026,1.776-0.012,3.553-0.015,5.33c0,0.066,0,0.132,0,0.206c-0.104,0-0.18,0-0.255,0
	c-1.821,0-3.642,0.003-5.463-0.004c-0.189-0.001-0.248,0.048-0.248,0.243c0.007,2.137,0.004,4.274,0.004,6.411
	c0,0.243,0.001,0.244,0.254,0.244c1.821,0,3.642,0,5.463,0c0.074,0,0.149,0,0.245,0c0,0.083,0,0.151,0,0.218
	c0,5.709,0,11.419-0.001,17.128c0,0.095-0.006,0.189-0.01,0.284c-7.31,0-14.619,0-21.929,0c-0.076-0.025-0.151-0.06-0.229-0.074
	c-1.092-0.19-1.859-0.956-2.049-2.046C283.062,416.058,283.028,415.969,283.003,415.88z"/>
<g>
</g>
<g>
</g>
<g>
</g>
<g>
</g>
<g>
</g>
<g>
</g>
</svg>
