<?xml version="1.0" encoding="UTF-8" standalone="no"?>
<!DOCTYPE svg PUBLIC "-//W3C//DTD SVG 1.1//EN" "http://www.w3.org/Graphics/SVG/1.1/DTD/svg11.dtd">
<svg width="100%" height="100%" viewBox="0 0 46 46" version="1.1" xmlns="http://www.w3.org/2000/svg" xmlns:xlink="http://www.w3.org/1999/xlink" xml:space="preserve" xmlns:serif="http://www.serif.com/" style="fill-rule:evenodd;clip-rule:evenodd;stroke-linejoin:round;stroke-miterlimit:2;">
    <g transform="matrix(1,0,0,1,-283.003,-372.743)">
        <path d="M283.003,415.88L283.003,375.134C283.028,375.044 283.061,374.956 283.077,374.864C283.266,373.775 284.037,373.004 285.123,372.818C285.215,372.802 285.303,372.769 285.393,372.743L326.139,372.743C326.229,372.768 326.318,372.802 326.409,372.818C327.496,373.005 328.267,373.776 328.454,374.863C328.47,374.955 328.504,375.044 328.529,375.134L328.529,415.918C328.504,415.994 328.469,416.069 328.455,416.147C328.261,417.244 327.498,418.007 326.406,418.196C326.328,418.21 326.253,418.245 326.177,418.27L314.454,418.27C314.456,418.131 314.459,417.992 314.459,417.853L314.459,400.639L320.017,400.639C320.382,400.639 320.374,400.638 320.417,400.275C320.531,399.323 320.65,398.371 320.772,397.42C320.918,396.281 321.071,395.144 321.219,394.005C321.253,393.746 321.248,393.745 320.975,393.745L314.468,393.745C314.464,393.679 314.458,393.636 314.458,393.592C314.458,392.144 314.449,390.696 314.464,389.248C314.468,388.853 314.512,388.453 314.59,388.066C314.783,387.103 315.356,386.463 316.325,386.25C316.827,386.14 317.348,386.084 317.862,386.072C318.993,386.046 320.125,386.06 321.257,386.068C321.441,386.069 321.493,386.014 321.491,385.832C321.483,384.789 321.487,383.746 321.487,382.702C321.487,381.817 321.484,380.932 321.49,380.046C321.491,379.892 321.439,379.834 321.285,379.826C321.008,379.812 320.732,379.765 320.455,379.755C318.964,379.701 317.474,379.635 315.983,379.612C314.682,379.592 313.419,379.826 312.211,380.328C310.404,381.078 309.076,382.337 308.229,384.097C307.605,385.394 307.33,386.778 307.309,388.207C307.283,389.983 307.297,391.76 307.294,393.537L307.294,393.743L307.039,393.743C305.218,393.743 303.397,393.746 301.576,393.739C301.387,393.738 301.328,393.787 301.328,393.982C301.335,396.119 301.332,398.256 301.332,400.393C301.332,400.636 301.333,400.637 301.586,400.637L307.294,400.637L307.294,400.855C307.294,406.564 307.294,412.274 307.293,417.983C307.293,418.078 307.287,418.172 307.283,418.267L285.354,418.267C285.278,418.242 285.203,418.207 285.125,418.193C284.033,418.003 283.266,417.237 283.076,416.147C283.062,416.058 283.028,415.969 283.003,415.88Z" style="fill:white;fill-rule:nonzero;"/>
    </g>
</svg>
