<?xml version="1.0" encoding="UTF-8" standalone="no"?>
<!DOCTYPE svg PUBLIC "-//W3C//DTD SVG 1.1//EN" "http://www.w3.org/Graphics/SVG/1.1/DTD/svg11.dtd">
<svg width="100%" height="100%" viewBox="0 0 46 47" version="1.1" xmlns="http://www.w3.org/2000/svg" xmlns:xlink="http://www.w3.org/1999/xlink" xml:space="preserve" xmlns:serif="http://www.serif.com/" style="fill-rule:evenodd;clip-rule:evenodd;stroke-linejoin:round;stroke-miterlimit:2;">
    <g transform="matrix(1,0,0,1,-283.003,-372.474)">
        <path d="M323.94,372.474L287.593,372.474C285.058,372.474 283.003,374.536 283.003,377.079L283.003,413.934C283.003,416.477 285.057,418.539 287.593,418.539L323.94,418.539C326.475,418.539 328.53,416.478 328.53,413.934L328.53,377.079C328.529,374.536 326.475,372.474 323.94,372.474ZM297.611,408.922L291.486,408.922L291.486,389.217L297.611,389.217L297.611,408.922ZM294.508,386.8C292.574,386.8 291.325,385.429 291.325,383.738C291.325,382.005 292.614,380.675 294.588,380.675C296.562,380.675 297.771,382.005 297.812,383.738C297.813,385.429 296.564,386.8 294.508,386.8ZM319.976,408.922L313.85,408.922L313.85,398.002C313.85,395.463 312.963,393.73 310.747,393.73C309.054,393.73 308.048,394.899 307.604,396.027C307.442,396.43 307.402,396.994 307.402,397.559L307.402,408.922L301.277,408.922L301.277,395.503C301.277,393.045 301.197,390.99 301.117,389.217L306.435,389.217L306.718,391.957L306.839,391.957C307.644,390.668 309.619,388.774 312.924,388.774C316.954,388.774 319.976,391.474 319.976,397.277L319.976,408.922Z" style="fill:white;fill-rule:nonzero;"/>
    </g>
</svg>
