<?xml version="1.0" encoding="iso-8859-1"?>
<!-- Generator: Adobe Illustrator 26.5.3, SVG Export Plug-In . SVG Version: 6.00 Build 0)  -->
<svg version="1.1" id="Layer_1" xmlns="http://www.w3.org/2000/svg" xmlns:xlink="http://www.w3.org/1999/xlink" x="0px" y="0px"
	 width="612px" height="792px" viewBox="0 0 612 792" enable-background="new 0 0 612 792" xml:space="preserve">
<path fill="#FFFFFF" d="M323.94,372.474h-36.347c-2.535,0-4.59,2.062-4.59,4.605v36.855c0,2.543,2.054,4.605,4.59,4.605h36.347
	c2.535,0,4.59-2.061,4.59-4.605v-36.855C328.529,374.536,326.475,372.474,323.94,372.474z M297.611,408.922h-6.125v-19.705h6.125
	V408.922z M294.508,386.8c-1.934,0-3.183-1.371-3.183-3.062c0-1.733,1.289-3.063,3.263-3.063c1.974,0,3.183,1.33,3.224,3.063
	C297.813,385.429,296.564,386.8,294.508,386.8z M319.975,408.922h-6.125v-10.92c0-2.539-0.887-4.272-3.103-4.272
	c-1.693,0-2.699,1.169-3.143,2.297c-0.162,0.403-0.202,0.967-0.202,1.532v11.363h-6.125v-13.419c0-2.458-0.08-4.513-0.16-6.286
	h5.318l0.283,2.74h0.121c0.805-1.289,2.78-3.183,6.085-3.183c4.03,0,7.052,2.7,7.052,8.503V408.922z"/>
<g>
</g>
<g>
</g>
<g>
</g>
<g>
</g>
<g>
</g>
<g>
</g>
</svg>
